<?xml version="1.0" encoding="UTF-8"?><svg xmlns="http://www.w3.org/2000/svg" viewBox="0 0 1627.65 622.47"><defs><style>.cls-1{fill:none;stroke:#010202;stroke-miterlimit:10;}</style></defs><g id="Layer_2"><g id="Layer_1-2"><path class="cls-1" d="M411.98,513.44s48.7-33.45,145.61-23.9c96.89,9.55,170.69,23.59,192.79,25.1,22.09,1.5,43.17,.67,71.63-7.02,28.46-7.69,78.82-17.44,107.94-6.05,29.12,11.4,67.95,21.27,96.22,19.09,28.27-2.17,63.94-19.41,80.15-21.25,16.22-1.84,54.39,1.5,59.57,7.02,5.19,5.52-31.97,2.17-47.87,.67-15.9-1.5-45.51-5.35-49.71-7.36-4.18-2.01,49.37-4.01,58.23-49.87,0,0-1.17-19.07,1.84-13.72s-9.03,9.38-33.47,9.71c-24.44,.34-106.94-25.76-128.52-34.98-21.59-9.21-58.16-19.75-76.98-24.26-18.82-4.51-66.78-9.29-83.59-8.78s-30.13-.76-28.87-6.28c1.26-5.52,7.52,.5,13.06,13.8,5.53,13.3,4.7,15.56,8.12,30.63,3.42,15.06,12.97,46.94,55.39,65.27,42.43,18.33,156.64,17.82,166.43,18.07,9.79,.26,53.72-3.01,81.08-29.12,0,0-42.93,22.59-125.01,9.55-82.08-13.04-147.86-38.91-150.36-42.93-2.51-4.01,76.31,11.79,108.68,17.57,32.38,5.78,102.17,17.57,143.08,8.28,0,0-127.78-16.31-169.94-35.14-42.17-18.84-89.86-15.31-97.89-18.84-8.03-3.51-12.56-17.57,2.77-18.33,15.31-.76,85.6,11.55,111.95,19.84,26.36,8.28,68.52,23.09,80.82,27.36,12.3,4.27,70.79,12.8,83.35,12.06,12.56-.76,13.8,4.77,.26,3.27-13.56-1.5-69.71-13.56-77.81-21.34-8.12-7.78-20.34-54.22-19.34-64.01,1-9.79,12.3-18.91,13.9-37.24,0,0,3.01-3.18-6.19-4.61-9.21-1.43-32.21-11.05-35.89-20.58,0,0,3.68,3.68-18.75,20.58-22.42,16.9-23.76,13.06-16.57,35.98,7.19,22.92,5.52,34.98,7.36,35.81s21.92,8.53,22.42,6.19-5.35,.34-7.19-18.91c-1.84-19.25-5.35-32.13-12.56-30.29-7.21,1.84,2.01,5.85,17.07-.5,15.06-6.35,19.41-15.73,6.85-26.6,0,0-3.01,25.93,13.06,17.74,16.07-8.19,10.88-9.55,5.19-7.02-5.69,2.51-12.72,6.35-13.06,21.92-.34,15.56,7.19,47.7,12.22,50.71,5.01,3.01-8.7-25.93-7.69-38.16,1-12.22,21.92-18.57,21.59-22.59s-7.86-2.84-4.51-6.85,24.6-16.57,25.76-21.75c1.17-5.19,3.18-10.21-11.05-8.53-14.23,1.67-25.76-7.69-27.1-5.52s2.51,8.19,5.85,9.88c3.35,1.67,13.06,10.05,25.93,.16,12.88-9.88,26.94-25.43,28.12-36.82,1.17-11.39-13.72-17.41-13.22-25.6,0,0,0,9.88-9.21,9.38s-5.35-13.9-5.35-13.9c0,0-11.39,1.17-18.07,0s-4.35,3.85-9.88,5.19c-5.52,1.34-8.19,2.17-8.86,1.84s3.68,13.9,9.88,15.9c6.2,2.01,21.92-2.51,19.41,4.51-2.51,7.02-14.56,2.84-15.23,6.19-.67,3.35,.67,3.68,8.86,2.84,8.19-.84,11.05,.5,4.18,2.51s-21.59,2.01-22.59,.67,16.07-14.56,15.73-20.08c-.34-5.52-11.55,3.68-21.75,4.51-10.21,.84-41.33-3.51-51.21-10.38-9.88-6.85-6.69-9.88-1.34-12.72,5.35-2.84,13.9,3.68,11.55,8.03-2.34,4.35-11.05,.84-9.88-1,1.17-1.84,8.53,1,17.74,4.68,9.21,3.68,42.17,.16,48.37-5.35s8.7-5.35,9.71-2.84c1,2.51-.34,11.55-2.01,8.86-1.67-2.68,1.84-8.53,8.86-9.88s12.39-7.36,7.86-7.02c-4.53,.34-13.39,4.35-7.02-17.57,0,0,.76-8.62,6.78-4.23s5.28,3.39,8.28,5.28,.76,7.9,2.89,8.16c2.13,.26,4.51-3.63,5.01-1.62s7.9-7.16-8.03-11.92c-15.95-4.77-12.8-5.16-11.17-5.39,1.62-.24-2.51-3.51,.62-3.39s3.01,2.63,10.55,4.01c7.52,1.38,13.94,4.01,14.94,9.55,1,5.53,.5,9.91-5.01,13.56s-4.01,4.14-4.65,6.9c-.62,2.77-1.26-7.16,2.13-11.17s-8.28,8.67-7.02,14.18c1.26,5.52,5.01,16.57,11.67,18.95,0,0,2.13-2.77-6.28,3.77s-11.17,6.28-8.53,9.03c2.63,2.77,7.57,10.99,12.8,8.03s5.87-8.24,.5-4.14c-5.37,4.09-18.07,16.81-35.27,14.94-17.19-1.89-24.85-4.65-29.12-3.77-4.27,.88-14.44,2.89-16.19-6.52-1.77-9.41,8.28-7.4,12.68-5.78,4.39,1.62-.12,4.89,9.67,5.28,9.79,.38,26.74,2.27,38.53-6.9,11.79-9.17,14.18-5.39,10.91-.88s-15.68,11.67-26.1,12.17-31.25-1.77-39.91-7.02c0,0,24.98,33.64,22.71,35.39-2.27,1.77-88.11-113.34-116.46-132.67-28.35-19.36-90.86-47.72-168.43-41.44,0,0-43.43,4.51-26.86,27.86,16.57,23.35,55.98,61,73.8,79.82,17.82,18.84,53.46,75.2,64.51,104.13,11.05,28.91,32.38,79.38,4.51,109.99-27.86,30.63-58.49,46.94-74.56,49.71-16.07,2.77-35.14-8.28-14.06-7.02,21.08,1.26,51.72,22.34,99.9,11.55,48.2-10.79,47.7-30.63,97.65-15.81,49.95,14.81,74.3,26.6,142.33,13.3,68.02-13.3,102.17-16.07,139.81-3.01,12.44,4.32,17.23,45.31,17.03,100.27"/></g></g><g id="Layer_3"><path class="cls-1" d="M1215.44,622.47s2.06,106.35-49.89,127.81-292.52,11.29-243.95-45.18,71.15,96-32.75,63.25c-103.91-32.75-414.49-128.75-551.15,25.98s-49.13,203.29,15.25,160.94,267.67-79.2,288,14.61-298.16,527.51-387.95,566.47-118.59-198.21,113.51-69.46,911.43,115.49,989.36,73.84,71.15-121.28,0-119.58-76.24,169.41,77.93,182.96,59.29,581.65-69.46,648.85c0,0-83.58,70.59-433.69,36.71s-483.39-36.14-614.4,115.2-79.06,578.26,112.94,627.95,510.49,117.46,505.98,239.43-121.98,88.09-94.87-36.14,133.27-2.26,117.46,60.99-98.31-4.52-144.03,92.61c-45.71,97.13-14.09,210.07-147.36,219.11s-45.18-70.02,6.78-58.73,100.46,88.09,140.58,74.54,78.52-79.06,85.3-119.72-27.89-143.15-67.76-94.87-83.58,219.11-67.76,275.58c0,0,12.37,58.73,50.23,65.51s144.03,38.4,150.8-38.4-6.78-182.96,15.81-234.92-20.33-131.01-45.18-124.24-108.42,70.02-133.27,173.93-22.59,169.41-4.52,185.22,128.75,36.14,135.53,15.81-5.53-233.89,20.33-279.84,70.02-40.91,54.21,17.82-40.66,198.78-20.33,241.69-14.03,106.16-136.9,110.68-283.24-72.28-396.18-18.07-106.16,266.54,60.99,300.42,720.56-149.08,849.32-20.33,51.95,275.58-40.66,406.59c0,0-38.12,48.28-26.26,81.32s11.28,44.05-6.64,37.27-20.46-31.34-13.69-35.58,11.86,32.19-.85,52.52-21.18,33.88-23.72,22.87,3.62-19.62,9.32-14.4,9.32,30.49,2.54,27.95-16.94-11.5-16.94,.18-2.54,37.94,34.73,26.08,9.59-22.87,8.61-33.88,3.25-29.65,8.34-27.11-1.69,10.16,10.16,20.33,16.09,11.01,12.71,19.48-11.86-15.25,8.47-.85,21.18,12.71,30.49,13.55-36.01,22.55-49.13,11.48,16.94-25.03,13.55-15.71-36.42,50.82-97.41,38.96-51.67-98.26-8.47-159.25c0,0-20.33-4.24-37.27,19.48s-20.33,77.08-2.54,88.94c0,0-11.86-98.26,104.19-164.33,0,0,36.42-22.02,46.59-7.62s-12.71,.85-18.64,26.26-16.94,13.55-16.94,13.55c0,0,.85,25.41,26.26-9.32s22.02-20.33,5.93,9.32-35.58,57.6-54.21,3.39c0,0,2.54-20.33-31.34,23.72s-41.51,92.33-24.56,116.05,45.74,37.27,79.62,14.4"/></g></svg>