<?xml version="1.0" encoding="utf-8"?>

<svg version="1.1" id="Layer_1" xmlns="http://www.w3.org/2000/svg" xmlns:xlink="http://www.w3.org/1999/xlink" x="0px" y="0px"
	 viewBox="0 0 1920 2491" style="enable-background:new 0 0 1920 2491;" xml:space="preserve">

<path class="st0" d="M1601.6,0c-0.05,14.29-0.31,29.16-0.76,44.46c0,0-49.48,146-38.23,320.27s47.63,398.82,2.66,466.28
	c-44.97,67.46-70.11,222.36-269.68,154.9S1097.51,671.1,957.64,763.86s-49.78,146.16-16.13,120.86
	c33.65-25.3,117.98-238.92-75.97-196.75C671.6,730.13,255.6,797.59,306.2,1028.07S186.41,2103.08,467.48,2223.94
	c281.08,120.86,690.38,313.52,808.43,102.71c118.05-210.81,243.69-314.81,357.95-154.59"/>
<path class="st0" d="M286.14-178.5c0,0,79.74-54.76,238.39-39.13C683.16-202,803.99-179,840.17-176.54
	c36.16,2.46,70.68,1.1,117.27-11.5s129.04-28.55,176.72-9.91c47.68,18.67,111.25,34.82,157.54,31.26s104.68-31.78,131.23-34.79
	s89.05,2.46,97.53,11.5s-52.34,3.56-78.37,1.1c-26.03-2.46-74.51-8.76-81.38-12.05c-6.84-3.29,80.83-6.57,95.34-81.65
	c0,0-1.92-31.23,3.01-22.47c4.93,8.76-14.78,15.36-54.8,15.9s-175.08-42.18-210.42-57.27s-95.22-32.33-126.03-39.72
	c-30.81-7.39-109.33-15.21-136.85-14.38c-27.53,0.82-49.33-1.24-47.26-10.28c2.07-9.03,12.32,0.82,21.38,22.6
	c9.06,21.78,7.69,25.48,13.29,50.15s21.23,76.85,90.69,106.87s256.46,29.17,272.49,29.59c16.03,0.42,87.95-4.93,132.75-47.68
	c0,0-70.28,36.98-204.67,15.63s-242.08-63.71-246.18-70.28c-4.11-6.57,124.93,19.31,177.94,28.77
	c53.01,9.46,167.27,28.77,234.26,13.56c0,0-209.2-26.7-278.24-57.54s-147.13-25.06-160.27-30.84c-13.14-5.75-20.56-28.77,4.53-30.01
	c25.06-1.24,140.14,18.91,183.29,32.48s112.19,37.8,132.32,44.8c20.13,6.99,115.9,20.95,136.46,19.74
	c20.56-1.24,22.6,7.81,0.42,5.35c-22.2-2.46-114.13-22.2-127.4-34.94c-13.29-12.74-33.3-88.77-31.66-104.8
	c1.64-16.03,20.13-30.96,22.75-60.97c0,0,4.93-5.2-10.13-7.54c-15.08-2.34-52.74-18.09-58.76-33.7c0,0,6.02,6.02-30.69,33.7
	c-36.71,27.67-38.9,21.38-27.13,58.91s9.03,57.27,12.05,58.63c3.01,1.37,35.89,13.96,36.71,10.13c0.82-3.83-8.76,0.55-11.77-30.96
	s-8.76-52.61-20.56-49.6s3.29,9.58,27.95-0.82s31.78-25.76,11.22-43.55c0,0-4.93,42.46,21.38,29.04
	c26.31-13.41,17.82-15.63,8.49-11.5c-9.31,4.11-20.83,10.4-21.38,35.89c-0.55,25.48,11.77,78.1,20.01,83.02
	c8.21,4.93-14.24-42.46-12.59-62.47c1.64-20.01,35.89-30.41,35.34-36.98s-12.87-4.65-7.39-11.22s40.27-27.13,42.18-35.61
	c1.92-8.49,5.2-16.72-18.09-13.96c-23.29,2.74-42.18-12.59-44.37-9.03c-2.19,3.56,4.11,13.41,9.58,16.18
	c5.48,2.74,21.38,16.45,42.46,0.27c21.08-16.18,44.1-41.64,46.04-60.28c1.92-18.64-22.47-28.5-21.65-41.91c0,0,0,16.18-15.08,15.36
	c-15.08-0.82-8.76-22.75-8.76-22.75s-18.64,1.92-29.59,0c-10.95-1.92-7.12,6.3-16.18,8.49c-9.03,2.19-13.41,3.56-14.51,3.01
	c-1.09-0.55,6.02,22.75,16.18,26.03s35.89-4.11,31.78,7.39c-4.11,11.5-23.84,4.65-24.94,10.13c-1.1,5.48,1.09,6.02,14.51,4.65
	c13.41-1.37,18.09,0.82,6.84,4.11c-11.25,3.29-35.34,3.29-36.98,1.1s26.31-23.84,25.76-32.88s-18.91,6.02-35.61,7.39
	c-16.72,1.37-67.67-5.75-83.84-17c-16.18-11.22-10.95-16.18-2.19-20.83c8.76-4.65,22.75,6.02,18.91,13.14
	c-3.83,7.12-18.09,1.37-16.18-1.64s13.96,1.64,29.04,7.67c15.08,6.02,69.04,0.27,79.19-8.76s14.24-8.76,15.9-4.65
	c1.64,4.11-0.55,18.91-3.29,14.51c-2.74-4.38,3.01-13.96,14.51-16.18c11.5-2.21,20.28-12.05,12.87-11.5
	c-7.42,0.55-21.93,7.12-11.5-28.77c0,0,1.24-14.11,11.1-6.92c9.86,7.19,8.64,5.55,13.56,8.64c4.93,3.09,1.24,12.94,4.73,13.36
	c3.48,0.42,7.39-5.95,8.21-2.66c0.82,3.29,12.94-11.72-13.14-19.51c-26.11-7.81-20.95-8.44-18.29-8.83s-4.11-5.75,1.02-5.55
	c5.13,0.2,4.93,4.31,17.27,6.57c12.32,2.26,22.82,6.57,24.46,15.63s0.82,16.23-8.21,22.2c-9.03,5.97-6.57,6.77-7.62,11.3
	c-1.02,4.53-2.07-11.72,3.48-18.29c5.55-6.57-13.56,14.19-11.5,23.22c2.07,9.03,8.21,27.13,19.11,31.03c0,0,3.48-4.53-10.28,6.17
	c-13.76,10.7-18.29,10.28-13.96,14.78c4.31,4.53,12.39,17.99,20.95,13.14s9.61-13.49,0.82-6.77c-8.79,6.69-29.59,27.53-57.74,24.46
	c-28.15-3.09-40.69-7.62-47.68-6.17c-6.99,1.44-23.64,4.73-26.5-10.68c-2.89-15.41,13.56-12.12,20.76-9.46
	c7.19,2.66-0.2,8.01,15.83,8.64s43.78,3.71,63.09-11.3c19.31-15.01,23.22-8.83,17.87-1.44s-25.68,19.11-42.73,19.93
	c-17.05,0.82-51.17-2.89-65.35-11.5c0,0,40.89,55.08,37.18,57.94c-3.71,2.89-144.25-185.56-190.68-217.21s-148.78-78.1-275.77-67.82
	c0,0-71.1,7.39-43.98,45.62s91.66,99.87,120.83,130.68c29.17,30.84,87.53,123.12,105.62,170.48
	c18.09,47.34,53.01,129.96,7.39,180.08c-45.62,50.15-95.77,76.85-122.07,81.38c-26.31,4.53-57.54-13.56-23.02-11.5
	c34.52,2.07,84.67,36.58,163.56,18.91c78.92-17.67,78.1-50.15,159.87-25.88c81.78,24.24,121.65,43.55,233.02,21.78
	s167.27-26.31,228.91-4.93c20.36,7.07,28.21,74.18,27.88,164.17"/>
</svg>
