<svg id="Layer_2" xmlns="http://www.w3.org/2000/svg" viewBox="0 0 1334.39 2421.16"><g id="Layer_1-2"><path d="M1301.73,0c-.05,14.29-.31,29.16-.76,44.46,0,0-49.48,146-38.23,320.27,11.24,174.27,47.63,398.82,2.66,466.28-44.97,67.46-70.11,222.36-269.68,154.9-199.56-67.46-198.08-314.81-337.95-222.05-139.88,92.76-49.78,146.16-16.13,120.86,33.65-25.3,117.98-238.92-75.97-196.75C371.72,730.13-44.27,797.59,6.32,1028.07c50.59,230.48-119.79,1075.01,161.28,1195.87,281.08,120.86,690.38,313.52,808.43,102.71,118.05-210.81,243.69-314.81,357.95-154.59" /></svg>