<svg width="current" height="current" xmlns="http://www.w3.org/2000/svg" viewBox="0 0 595.28 517.21"><g id="layer1"><path d="M41.28-88.8s33.94-22.79,97.69-16.51c63.74,6.28,112.29,15.52,126.83,16.51,14.53,.99,28.4,.44,47.12-4.62s51.85-11.47,71.01-3.98c19.16,7.5,44.7,13.99,63.3,12.56s42.06-12.77,52.73-13.98,35.78,.99,39.19,4.62c3.41,3.63-21.03,1.43-31.49,.44-10.46-.99-29.94-3.52-32.7-4.84-2.75-1.32,32.48-2.64,38.31-32.81,0,0-.77-12.55,1.21-9.03,1.98,3.52-5.94,6.17-22.02,6.39s-70.35-16.95-84.55-23.01-38.26-12.99-50.64-15.96-43.93-6.11-54.99-5.78-19.82-.5-18.99-4.13c.83-3.63,4.95,.33,8.59,9.08s3.09,10.24,5.34,20.15,8.53,30.88,36.44,42.94,103.05,11.72,109.49,11.89,35.34-1.98,53.34-19.16c0,0-28.24,14.86-82.24,6.28s-97.27-25.6-98.92-28.24c-1.65-2.64,50.2,7.76,71.5,11.56s67.21,11.56,94.13,5.45c0,0-84.06-10.73-111.8-23.12-27.74-12.39-59.12-10.07-64.4-12.39-5.28-2.31-8.26-11.56,1.82-12.06,10.07-.5,56.31,7.6,73.65,13.05,17.34,5.45,45.08,15.19,53.17,18,8.09,2.81,46.57,8.42,54.83,7.93,8.26-.5,9.08,3.14,.17,2.15-8.92-.99-45.86-8.92-51.19-14.04-5.34-5.12-13.38-35.67-12.72-42.11s8.09-12.44,9.14-24.5c0,0,1.98-2.09-4.07-3.03-6.06-.94-21.19-7.27-23.61-13.54,0,0,2.42,2.42-12.33,13.54s-15.63,8.59-10.9,23.67c4.73,15.08,3.63,23.01,4.84,23.56s14.42,5.61,14.75,4.07c.33-1.54-3.52,.22-4.73-12.44-1.21-12.66-3.52-21.14-8.26-19.93s1.32,3.85,11.23-.33,12.77-10.35,4.51-17.5c0,0-1.98,17.06,8.59,11.67,10.57-5.39,7.16-6.28,3.41-4.62-3.74,1.65-8.37,4.18-8.59,14.42s4.73,31.38,8.04,33.36c3.3,1.98-5.72-17.06-5.06-25.1s14.42-12.22,14.2-14.86c-.22-2.64-5.17-1.87-2.97-4.51s16.18-10.9,16.95-14.31c.77-3.41,2.09-6.72-7.27-5.61-9.36,1.1-16.95-5.06-17.83-3.63-.88,1.43,1.65,5.39,3.85,6.5,2.2,1.1,8.59,6.61,17.06,.11s17.72-16.73,18.5-24.22c.77-7.49-9.03-11.45-8.7-16.84,0,0,0,6.5-6.06,6.17s-3.52-9.14-3.52-9.14c0,0-7.49,.77-11.89,0-4.4-.77-2.86,2.53-6.5,3.41-3.63,.88-5.39,1.43-5.83,1.21s2.42,9.14,6.5,10.46,14.42-1.65,12.77,2.97c-1.65,4.62-9.58,1.87-10.02,4.07s.44,2.42,5.83,1.87c5.39-.55,7.27,.33,2.75,1.65s-14.2,1.32-14.86,.44,10.57-9.58,10.35-13.21-7.6,2.42-14.31,2.97c-6.72,.55-27.19-2.31-33.69-6.83-6.5-4.51-4.4-6.5-.88-8.37s9.14,2.42,7.6,5.28-7.27,.55-6.5-.66,5.61,.66,11.67,3.08c6.06,2.42,27.74,.11,31.82-3.52s5.72-3.52,6.39-1.87c.66,1.65-.22,7.6-1.32,5.83-1.1-1.76,1.21-5.61,5.83-6.5s8.15-4.84,5.17-4.62-8.81,2.86-4.62-11.56c0,0,.5-5.67,4.46-2.78s3.47,2.23,5.45,3.47,.5,5.2,1.9,5.37c1.4,.17,2.97-2.39,3.3-1.07s5.2-4.71-5.28-7.84c-10.49-3.14-8.42-3.39-7.35-3.55s-1.65-2.31,.41-2.23,1.98,1.73,6.94,2.64c4.95,.91,9.17,2.64,9.83,6.28s.33,6.52-3.3,8.92-2.64,2.72-3.06,4.54c-.41,1.82-.83-4.71,1.4-7.35,2.23-2.64-5.45,5.7-4.62,9.33,.83,3.63,3.3,10.9,7.68,12.47,0,0,1.4-1.82-4.13,2.48s-7.35,4.13-5.61,5.94c1.73,1.82,4.98,7.23,8.42,5.28s3.86-5.42,.33-2.72c-3.53,2.69-11.89,11.06-23.2,9.83-11.31-1.24-16.35-3.06-19.16-2.48s-9.5,1.9-10.65-4.29c-1.16-6.19,5.45-4.87,8.34-3.8,2.89,1.07-.08,3.22,6.36,3.47s17.59,1.49,25.35-4.54,9.33-3.55,7.18-.58-10.32,7.68-17.17,8.01c-6.85,.33-20.56-1.16-26.26-4.62,0,0,16.43,22.13,14.94,23.28-1.49,1.16-57.96-74.56-76.62-87.28s-59.78-31.38-110.81-27.25c0,0-28.57,2.97-17.67,18.33,10.9,15.36,36.83,40.13,48.55,52.51,11.72,12.39,35.17,49.47,42.44,68.5,7.27,19.02,21.3,52.22,2.97,72.36-18.33,20.15-38.48,30.88-49.05,32.7s-23.12-5.45-9.25-4.62c13.87,.83,34.02,14.7,65.72,7.6,31.71-7.1,31.38-20.15,64.24-10.4,32.86,9.74,48.88,17.5,93.63,8.75s67.21-10.57,91.98-1.98c9.48,3.29,12.21,38.98,10.9,83.83" style="fill:none; stroke:#010202; stroke-miterlimit:10;"/></g><g id="layer2"><path d="M571.45,0c-2.12,72.35-14.76,168.53-26.59,190.96,0,0-264.27,123.55-257.28-87.25S-91.58,192.88,120.46,269.5s432.66,65.39,400.29,161.17,60.11,313.76-97.76,239.12c-157.87-74.64-322.35-164.48-308.48-31.71s422.75,106.35,411.52,217.98-420.77,44.92-356.7,135.41" style="fill:none; stroke:#010202; stroke-miterlimit:10;"/></g></svg>